<svg xmlns="http://www.w3.org/2000/svg" viewBox="0 0 256 256" role="img" aria-labelledby="title desc">
  <title id="title">Skylight Guitars mark</title>
  <desc id="desc">Neon SG monogram with pick silhouette</desc>
  <defs>
    <linearGradient id="g1" x1="0%" y1="0%" x2="100%" y2="100%">
      <stop offset="0%" stop-color="#4ee5ff"/>
      <stop offset="52%" stop-color="#de4fff"/>
      <stop offset="100%" stop-color="#6e39ff"/>
    </linearGradient>
    <filter id="glow" x="-25%" y="-25%" width="150%" height="150%">
      <feGaussianBlur stdDeviation="4" result="b"/>
      <feMerge>
        <feMergeNode in="b"/>
        <feMergeNode in="SourceGraphic"/>
      </feMerge>
    </filter>
  </defs>
  <path d="M128 14 L214 64 L214 160 L128 242 L42 160 L42 64 Z" fill="#0f1020" opacity=".9"/>
  <path d="M128 14 L214 64 L214 160 L128 242 L42 160 L42 64 Z" fill="none" stroke="url(#g1)" stroke-opacity=".35" stroke-width="4"/>
  <g filter="url(#glow)">
    <path d="M176 72c-18-10-41-15-62-12-23 3-42 17-42 34 0 10 6 18 18 24 8 4 20 8 32 11 17 5 25 9 25 16 0 8-9 14-24 15-16 2-35-2-50-11"
      fill="none" stroke="#0b0d1e" stroke-width="28" stroke-linecap="round" stroke-linejoin="round"/>
    <path d="M176 72c-18-10-41-15-62-12-23 3-42 17-42 34 0 10 6 18 18 24 8 4 20 8 32 11 17 5 25 9 25 16 0 8-9 14-24 15-16 2-35-2-50-11"
      fill="none" stroke="url(#g1)" stroke-width="18" stroke-linecap="round" stroke-linejoin="round"/>
    <path d="M182 96v66c0 22-18 38-44 38-18 0-36-8-46-22"
      fill="none" stroke="#0b0d1e" stroke-width="28" stroke-linecap="round" stroke-linejoin="round"/>
    <path d="M182 96v66c0 22-18 38-44 38-18 0-36-8-46-22"
      fill="none" stroke="url(#g1)" stroke-width="18" stroke-linecap="round" stroke-linejoin="round"/>
  </g>
</svg>
